<svg xmlns="http://www.w3.org/2000/svg" width="143" height="143" viewBox="0 0 143 143">
  <g id="clock_phone" transform="translate(-4792 -2700)">
    <rect id="Rectangle_10" data-name="Rectangle 10" width="143" height="143" transform="translate(4792 2700)" fill="none"/>
    <g id="Group_15" data-name="Group 15" transform="translate(12.911 3.943)">
      <path id="Subtraction_1" data-name="Subtraction 1" d="M71.43,96.284h0l-8.424-5.776A42.758,42.758,0,1,0,6.135,33.415L0,25.527A53.03,53.03,0,0,1,18.656,7.059a51.72,51.72,0,0,1,12.307-5.21A51.074,51.074,0,0,1,64.674,4.118,52.44,52.44,0,0,1,73.5,8.938,53.13,53.13,0,0,1,87.584,23.007a52.335,52.335,0,0,1,4.829,8.812,51.062,51.062,0,0,1,2.31,33.607A51.772,51.772,0,0,1,89.6,77.657,53.035,53.035,0,0,1,71.43,96.284ZM44.578,57.693H18.437l-.131,0a12.373,12.373,0,0,0-.929-7.245,3.887,3.887,0,0,1,1.061-.145H40.882V20.141a3.7,3.7,0,1,1,7.393,0v33.8A3.641,3.641,0,0,1,44.578,57.693Z" transform="translate(4818.301 2703.17)" fill="#fff"/>
      <path id="Path_19" data-name="Path 19" d="M84.186,38.806c9.021,0,15.036-2.46,20.394-8.42.383-.437.765-.875,1.148-1.258,3.062-3.5,4.538-6.944,4.538-10.224,0-3.773-2.132-7.272-6.725-10.443L88.342-2.091C83.64-5.317,78.118-5.7,73.8-1.326L69.862,2.556C68.6,3.814,67.51,3.923,66.2,3.048A98.729,98.729,0,0,1,54.17-7.34a73.137,73.137,0,0,1-9.787-11.427,2.588,2.588,0,0,1,.492-3.663l3.882-3.937c4.319-4.319,3.991-9.842.765-14.544L38.861-56.22c-3.116-4.538-6.67-6.616-10.443-6.67-3.281-.055-6.725,1.476-10.17,4.538-.437.383-.875.711-1.258,1.094-5.96,5.413-8.475,11.373-8.475,20.5C8.516-21.829,17.537-3.786,34.377,13,51.163,29.73,69.1,38.806,84.186,38.806Zm0-8.147c-13.177.219-29.907-9.678-43.631-23.292C26.723-6.356,16.444-23.688,16.717-36.919a18.226,18.226,0,0,1,6.069-14c.328-.328.656-.547.984-.82a7.421,7.421,0,0,1,4.647-2.023,4.284,4.284,0,0,1,3.827,2.132L42.2-36.755a3.729,3.729,0,0,1-.492,5.194L37.33-27.187c-3.718,3.663-3.445,8.092-.875,11.537A125.26,125.26,0,0,0,48.647-1.763,153.751,153.751,0,0,0,63.082,10.976c3.445,2.57,7.873,2.843,11.537-.875l4.374-4.374a3.729,3.729,0,0,1,5.194-.492l14.762,9.842a4.37,4.37,0,0,1,2.187,3.882,7.293,7.293,0,0,1-2.023,4.593c-.328.383-.547.656-.82,1.039C94.739,28.582,89.873,30.55,84.186,30.66Z" transform="translate(4778.468 2792.681)" fill="#fff"/>
    </g>
  </g>
</svg>
