<svg xmlns="http://www.w3.org/2000/svg" width="143" height="143" viewBox="0 0 143 143">
  <g id="flat_door" data-name="flat door" transform="translate(-5601 -2682)">
    <g id="_023-single-door-6" data-name="023-single-door-6" transform="translate(5605.249 2687.987)">
      <path id="Path_41" data-name="Path 41" d="M102.4,131.231V2.267A2.417,2.417,0,0,1,104.944.005H181.3a2.417,2.417,0,0,1,2.546,2.262V131.231Zm0,0" transform="translate(-75.249 -0.001)" fill="#ccbd98"/>
      <path id="Path_42" data-name="Path 42" d="M128,152.314V30.138a4.525,4.525,0,0,1,4.525-4.525h58.826a4.525,4.525,0,0,1,4.525,4.525V152.314Zm0,0" transform="translate(-94.062 -18.823)" fill="#6c1227"/>
      <path id="Path_43" data-name="Path 43" d="M136.535,156.325V36.41a2.262,2.262,0,0,1,2.262-2.262h58.826a2.262,2.262,0,0,1,2.262,2.262V156.325Zm0,0" transform="translate(-100.334 -25.095)" fill="#802d40"/>
      <path id="Path_44" data-name="Path 44" d="M218.376,68.281,204.8,88.644l13.575,20.362,13.575-20.362Zm0,0" transform="translate(-150.5 -50.178)" fill="#a85165"/>
      <path id="Path_45" data-name="Path 45" d="M218.376,307.215,204.8,327.578l13.575,20.362,13.575-20.362Zm0,0" transform="translate(-150.5 -225.761)" fill="#a85165"/>
      <path id="Path_46" data-name="Path 46" d="M212.1,162.148,196.266,189.3,212.1,216.449,227.941,189.3Zm0,0" transform="translate(-144.228 -119.157)" fill="#6c1227"/>
      <path id="Path_47" data-name="Path 47" d="M343.6,260.55a2.267,2.267,0,0,1-.86-.181,2.038,2.038,0,0,1-1.222-1.222,2.266,2.266,0,0,1-.181-.86,2.383,2.383,0,0,1,.657-1.606,2.6,2.6,0,0,1,.747-.475,2.262,2.262,0,0,1,2.466.475,2.377,2.377,0,0,1,.656,1.606,2.243,2.243,0,0,1-.18.86,2.6,2.6,0,0,1-.475.747A2.383,2.383,0,0,1,343.6,260.55Zm0,0" transform="translate(-250.832 -188.146)" fill="#ccbd98"/>
      <path id="Path_48" data-name="Path 48" d="M133.488,490.939H2.263a2.262,2.262,0,1,1,0-4.525H133.488a2.262,2.262,0,1,1,0,4.525Zm0,0" transform="translate(0 -357.447)" fill="#2c3e50"/>
      <g id="Group_17" data-name="Group 17" transform="translate(62.943 42.991)">
        <path id="Path_49" data-name="Path 49" d="M247.262,170.587l-4.932,7.4-4.932-7.4,4.932-8.439Zm0,0" transform="translate(-237.398 -162.148)" fill="#804169"/>
        <path id="Path_50" data-name="Path 50" d="M247.262,314.613l-4.932-7.4-4.932,7.4,4.932,8.44Zm0,0" transform="translate(-237.398 -268.752)" fill="#804169"/>
      </g>
    </g>
    <rect id="Rectangle_14" data-name="Rectangle 14" width="143" height="143" transform="translate(5601 2682)" fill="none"/>
  </g>
</svg>
