<svg xmlns="http://www.w3.org/2000/svg" width="143.467" height="143" viewBox="0 0 143.467 143">
  <g id="Group_19" data-name="Group 19" transform="translate(-5104 -2955)">
    <rect id="Rectangle_11" data-name="Rectangle 11" width="143" height="143" transform="translate(5104 2955)" fill="none"/>
    <g id="Subtraction_2" data-name="Subtraction 2" transform="translate(5109 2955)" fill="#e6e8f0">
      <path d="M 31.49953079223633 62.5 C 27.3144702911377 62.5 23.25482940673828 61.6804313659668 19.43338966369629 60.06404876708984 C 15.74207019805908 58.50270843505859 12.42679977416992 56.26741027832031 9.579669952392578 53.42023086547852 C 6.732540130615234 50.57304000854492 4.497270107269287 47.2576789855957 2.935940027236938 43.56621932983398 C 1.319569945335388 39.74465179443359 0.5 35.68482971191406 0.5 31.49953079223633 C 0.5 27.31446075439453 1.319569945335388 23.25482940673828 2.935940027236938 19.43338966369629 C 4.497260093688965 15.74207019805908 6.732530117034912 12.42679977416992 9.579660415649414 9.579660415649414 C 12.42679977416992 6.732530117034912 15.74207019805908 4.497260093688965 19.43338966369629 2.935940027236938 C 23.25482940673828 1.319569945335388 27.31446075439453 0.5 31.49953079223633 0.5 C 35.68482971191406 0.5 39.74465179443359 1.319569945335388 43.56621932983398 2.935940027236938 C 47.2576789855957 4.497270107269287 50.57304000854492 6.732540130615234 53.42023086547852 9.579669952392578 C 56.26741027832031 12.42679977416992 58.50270843505859 15.74207019805908 60.06404876708984 19.43338966369629 C 61.6804313659668 23.25482940673828 62.5 27.3144702911377 62.5 31.49953079223633 C 62.5 35.68481826782227 61.6804313659668 39.7446403503418 60.06404876708984 43.56621170043945 C 58.50270843505859 47.25767135620117 56.26739883422852 50.57304000854492 53.42023086547852 53.42023086547852 C 50.57304000854492 56.26739883422852 47.25767135620117 58.50270843505859 43.56621932983398 60.06404876708984 C 39.7446403503418 61.6804313659668 35.68481826782227 62.5 31.49953079223633 62.5 Z M 31.49953079223633 3.699559926986694 C 27.74677085876465 3.699559926986694 24.10600090026855 4.43464994430542 20.6783504486084 5.884419918060303 C 17.36790084838867 7.284629821777344 14.39490985870361 9.289030075073242 11.84197044372559 11.84197044372559 C 9.289030075073242 14.39490985870361 7.284629821777344 17.36790084838867 5.884419918060303 20.6783504486084 C 4.43464994430542 24.10600090026855 3.699559926986694 27.74677085876465 3.699559926986694 31.49953079223633 C 3.699559926986694 35.25228118896484 4.43464994430542 38.89303970336914 5.884419918060303 42.32070159912109 C 7.284629821777344 45.63116073608398 9.289039611816406 48.60414123535156 11.84197044372559 51.15708160400391 C 14.3948802947998 53.70999908447266 17.36787033081055 55.71440887451172 20.6783504486084 57.11463928222656 C 24.10602951049805 58.56441116333008 27.74679946899414 59.29949951171875 31.49953079223633 59.29949951171875 C 35.25225067138672 59.29949951171875 38.89302062988281 58.56441116333008 42.32070159912109 57.11463928222656 C 45.63117980957031 55.71440887451172 48.60417175292969 53.70999908447266 51.15708160400391 51.15708160400391 C 53.70999908447266 48.60417175292969 55.71440887451172 45.63117980957031 57.11463928222656 42.32070922851562 C 58.56441116333008 38.89302062988281 59.29949951171875 35.25225067138672 59.29949951171875 31.49953079223633 C 59.29949951171875 27.74679946899414 58.56441116333008 24.10602951049805 57.11463928222656 20.67835998535156 C 55.71440887451172 17.36787033081055 53.70999908447266 14.3948802947998 51.15708160400391 11.84197044372559 C 48.60414123535156 9.289039611816406 45.63116073608398 7.284629821777344 42.32070922851562 5.884419918060303 C 38.89303970336914 4.43464994430542 35.25228118896484 3.699559926986694 31.49953079223633 3.699559926986694 Z" stroke="none"/>
      <path d="M 31.49953079223633 62 C 35.61753845214844 62 39.61183166503906 61.19372177124023 43.37144088745117 59.60353851318359 C 47.00329971313477 58.06740951538086 50.26525115966797 55.86809158325195 53.06666946411133 53.06666946411133 C 55.86809158325195 50.26525115966797 58.06740951538086 47.00329971313477 59.60353851318359 43.37144088745117 C 61.19372177124023 39.61183166503906 62 35.61753845214844 62 31.49953079223633 C 62 27.38175010681152 61.19372177124023 23.38764953613281 59.60354995727539 19.62817001342773 C 58.06742095947266 15.99645042419434 55.86809921264648 12.73458957672119 53.06668090820312 9.933219909667969 C 50.26525115966797 7.131849765777588 47.00329971313477 4.932559967041016 43.37144088745117 3.396450042724609 C 39.61183929443359 1.806280016899109 35.61754989624023 1 31.49953079223633 1 C 27.38175010681152 1 23.38763999938965 1.806280016899109 19.62817001342773 3.396440029144287 C 15.99645042419434 4.932549953460693 12.73460006713867 7.131840229034424 9.933219909667969 9.933219909667969 C 7.131840229034424 12.73460006713867 4.932549953460693 15.99645042419434 3.396440029144287 19.62817001342773 C 1.806280016899109 23.38763999938965 1 27.38175010681152 1 31.49953079223633 C 1 35.61754989624023 1.806280016899109 39.61183929443359 3.396450042724609 43.37144088745117 C 4.932559967041016 47.00329971313477 7.131849765777588 50.26525115966797 9.933219909667969 53.06668090820312 C 12.73458957672119 55.86809921264648 15.99645042419434 58.06742095947266 19.62817001342773 59.60354995727539 C 23.38764953613281 61.19372177124023 27.38175010681152 62 31.49953079223633 62 M 31.49953079223633 3.199559926986694 C 35.31954956054688 3.199559926986694 39.02585983276367 3.947940111160278 42.51548004150391 5.423920154571533 C 45.88552856445312 6.849339962005615 48.91194152832031 8.889730453491211 51.51063919067383 11.48840999603271 C 54.10931015014648 14.08708953857422 56.14971160888672 17.11350059509277 57.57514953613281 20.48357963562012 C 59.05112075805664 23.97322082519531 59.79949951171875 27.67951965332031 59.79949951171875 31.49953079223633 C 59.79949951171875 35.31953048706055 59.05112075805664 39.02582931518555 57.57514190673828 42.5154914855957 C 56.14970016479492 45.88555908203125 54.10931015014648 48.91196060180664 51.51063919067383 51.51063919067383 C 48.91196060180664 54.10931015014648 45.88555908203125 56.14970016479492 42.51548004150391 57.57514953613281 C 39.02582931518555 59.05112075805664 35.31953048706055 59.79949951171875 31.49953079223633 59.79949951171875 C 27.67951965332031 59.79949951171875 23.97322082519531 59.05112075805664 20.48357009887695 57.57514190673828 C 17.11350059509277 56.14971160888672 14.08708953857422 54.10931015014648 11.48840999603271 51.51063919067383 C 8.889730453491211 48.91194152832031 6.849339962005615 45.88552856445312 5.423910140991211 42.51548004150391 C 3.947940111160278 39.02585983276367 3.199559926986694 35.31954956054688 3.199559926986694 31.49953079223633 C 3.199559926986694 27.67950057983398 3.947940111160278 23.97319030761719 5.423920154571533 20.48357963562012 C 6.849329948425293 17.1135196685791 8.88971996307373 14.08710956573486 11.48840999603271 11.48840999603271 C 14.08710956573486 8.88971996307373 17.1135196685791 6.849329948425293 20.48357963562012 5.423910140991211 C 23.97319030761719 3.947940111160278 27.67950057983398 3.199559926986694 31.49953079223633 3.199559926986694 M 31.49953079223633 63 C 27.2471809387207 63 23.12202072143555 62.16714096069336 19.23860931396484 60.52455139160156 C 15.48768043518066 58.9379997253418 12.11898040771484 56.66669845581055 9.226110458374023 53.77378082275391 C 6.3332200050354 50.88082885742188 4.061970233917236 47.51203918457031 2.47544002532959 43.76099014282227 C 0.832859992980957 39.87746047973633 -3.552713678800501e-15 35.75210189819336 -3.552713678800501e-15 31.49953079223633 C -3.552713678800501e-15 27.2471809387207 0.832859992980957 23.12200927734375 2.47544002532959 19.23860931396484 C 4.061970233917236 15.48768043518066 6.3332200050354 12.11900043487549 9.226110458374023 9.226110458374023 C 12.11900043487549 6.3332200050354 15.48768043518066 4.061970233917236 19.23860931396484 2.47544002532959 C 23.12200927734375 0.832859992980957 27.2471809387207 -3.552713678800501e-15 31.49953079223633 -3.552713678800501e-15 C 35.75210189819336 -3.552713678800501e-15 39.87746047973633 0.832859992980957 43.76099014282227 2.47544002532959 C 47.51203918457031 4.061970233917236 50.88082885742188 6.3332200050354 53.77378082275391 9.226110458374023 C 56.66669845581055 12.11898040771484 58.9379997253418 15.48768043518066 60.52455139160156 19.23860931396484 C 62.16714096069336 23.12202072143555 63 27.2471809387207 63 31.49953079223633 C 63 35.75209045410156 62.16714096069336 39.87744903564453 60.52455139160156 43.76099014282227 C 58.9379997253418 47.51205062866211 56.66670989990234 50.88084030151367 53.77378082275391 53.77378082275391 C 50.88084030151367 56.66670989990234 47.51205062866211 58.9379997253418 43.76099014282227 60.52455139160156 C 39.87744903564453 62.16714096069336 35.75209045410156 63 31.49953079223633 63 Z M 31.49953079223633 4.199560165405273 C 27.81405067443848 4.199560165405273 24.23880004882812 4.921370029449463 20.87313079833984 6.34492015838623 C 17.62224960327148 7.719930171966553 14.70269012451172 9.688360214233398 12.19552040100098 12.19552040100098 C 9.688360214233398 14.70269012451172 7.719930171966553 17.62224960327148 6.34492015838623 20.87313079833984 C 4.921370029449463 24.23880004882812 4.199560165405273 27.81405067443848 4.199560165405273 31.49953079223633 C 4.199560165405273 35.18500900268555 4.921370029449463 38.76025009155273 6.34492015838623 42.12593078613281 C 7.719930171966553 45.37680053710938 9.688360214233398 48.29636001586914 12.19552040100098 50.80353164672852 C 14.70269012451172 53.31069946289062 17.62224960327148 55.27912139892578 20.87313079833984 56.65414047241211 C 24.23880004882812 58.07767868041992 27.81405067443848 58.79949951171875 31.49953079223633 58.79949951171875 C 35.18500900268555 58.79949951171875 38.76025009155273 58.07767868041992 42.12593078613281 56.65414047241211 C 45.37680053710938 55.27912139892578 48.29636001586914 53.31069946289062 50.80353164672852 50.80353164672852 C 53.31069946289062 48.29636001586914 55.27912139892578 45.37680053710938 56.65414047241211 42.12593078613281 C 58.07767868041992 38.76025009155273 58.79949951171875 35.18500900268555 58.79949951171875 31.49953079223633 C 58.79949951171875 27.81405067443848 58.07767868041992 24.23880004882812 56.65414047241211 20.87313079833984 C 55.27912139892578 17.62224960327148 53.31069946289062 14.70269012451172 50.80353164672852 12.19552040100098 C 48.29636001586914 9.688360214233398 45.37680053710938 7.719930171966553 42.12593078613281 6.34492015838623 C 38.76025009155273 4.921370029449463 35.18500900268555 4.199560165405273 31.49953079223633 4.199560165405273 Z" stroke="none" fill="#c6cbde"/>
    </g>
    <g id="key" transform="translate(5148.761 2975.705) rotate(7)">
      <path id="Path_56" data-name="Path 56" d="M57.264,43.56c5.9-11.688,5.631-24.668-4.131-34.432A31.164,31.164,0,1,0,9.195,53.336c8.7,8.592,20.687,10.485,31.54,6.751l5.508,5.619h9.791V73.5h7.791v7.791h9.739v9.739h5.843v5.407c0,1.572.076,2.037,1.073,3.033a4.477,4.477,0,0,0,2.822,1.3H98.885V83.236ZM29.718,29.788a9.739,9.739,0,1,1,0-13.773A9.737,9.737,0,0,1,29.718,29.788Z" transform="translate(0 0)" fill="#dbb45b" stroke="#f2cd79" stroke-width="1"/>
      <path id="Path_57" data-name="Path 57" d="M10.929,0,0,8.5l5.033,5.134h9.791v7.791h7.791v7.791h9.739v9.739H38.2v5.407c0,1.572.076,2.037,1.073,3.033a4.477,4.477,0,0,0,2.822,1.3H57.675V46.746Z" transform="translate(41.212 52.072)" fill="#c79d59"/>
      <path id="Path_58" data-name="Path 58" d="M13.634,0A13.634,13.634,0,1,0,27.269,13.634,13.634,13.634,0,0,0,13.634,0Zm0,23.373a9.739,9.739,0,1,1,9.739-9.739A9.74,9.74,0,0,1,13.634,23.373Z" transform="translate(9.29 9.221)" fill="#d19d4a"/>
    </g>
    <path id="Intersection_1" data-name="Intersection 1" d="M75.827,87.71c-1.182-.766-1.354-1.206-1.68-2.743l-1.124-5.288-5.715,1.214-.79-3.717.1-.842-.29-.036-1.048-4.932-8.074,1.716.7-5.668-3.51-.431-.258-1.213-3.524.749-.442-.054.95-7.734L41.4,57.539,36.619,51.29c-11.227,2.383-22.9-.958-30.482-10.544A30.579,30.579,0,0,1,2.3,34.468,9.74,9.74,0,1,0,0,15.722,30.893,30.893,0,0,1,7.391.573,31.073,31.073,0,0,1,26.925,3.126,9.693,9.693,0,1,0,28.941,4.2q.683.4,1.353.831c11.579,7.521,14.542,20.161,11.2,32.821L70.458,55.691,91.516,81.353l-.548,4.467L78.858,88.394a4.477,4.477,0,0,1-3.031-.684Z" transform="translate(5145.25 2989.019)" fill="#201547" opacity="0.149"/>
    <g id="key-2" data-name="key" transform="matrix(0.978, -0.208, 0.208, 0.978, 5119.571, 2998.272)">
      <path id="Path_56-2" data-name="Path 56" d="M57.264,43.56c5.9-11.688,5.631-24.668-4.131-34.432A31.164,31.164,0,1,0,9.195,53.336c8.7,8.592,20.687,10.485,31.54,6.751l5.508,5.619h9.791V73.5h7.791v7.791h9.739v9.739h5.843v5.407c0,1.572.076,2.037,1.073,3.033a4.477,4.477,0,0,0,2.822,1.3H98.885V83.236ZM29.718,29.788a9.739,9.739,0,1,1,0-13.773A9.737,9.737,0,0,1,29.718,29.788Z" fill="#ebc96a" stroke="#f8dd8f" stroke-width="1"/>
      <path id="Path_57-2" data-name="Path 57" d="M10.929,0,0,8.5l5.033,5.134h9.791v7.791h7.791v7.791h9.739v9.739H38.2v5.407c0,1.572.076,2.037,1.073,3.033a4.478,4.478,0,0,0,2.822,1.3H57.675V46.746Z" transform="translate(41.212 52.072)" fill="#e2b477"/>
      <path id="Path_58-2" data-name="Path 58" d="M13.634,0A13.634,13.634,0,1,0,27.269,13.634,13.634,13.634,0,0,0,13.634,0Zm0,23.373a9.739,9.739,0,1,1,9.739-9.739A9.74,9.74,0,0,1,13.634,23.373Z" transform="translate(9.29 9.221)" fill="#e2b74e"/>
    </g>
    <g id="Path_61" data-name="Path 61" transform="translate(5109.604 2957.462)" fill="#e6e8f0">
      <path d="M 31.15627098083496 60.15344619750977 C 26.96261215209961 60.15344619750977 22.89531135559082 59.33220672607422 19.06733131408691 57.71254730224609 C 15.36999130249023 56.14940643310547 12.04867172241211 53.91018676757812 9.195501327514648 51.05703735351562 C 8.362551689147949 50.22380447387695 8.042071342468262 49.36629486083984 8.316281318664551 48.70443725585938 C 8.516961097717285 48.22006607055664 9.021111488342285 47.91917419433594 9.631991386413574 47.91917419433594 C 10.25209140777588 47.91917419433594 10.9023609161377 48.22793579101562 11.46301174163818 48.7885856628418 C 14.02023124694824 51.34580612182617 16.99866104125977 53.35376739501953 20.31556129455566 54.75669479370117 C 23.75039100646973 56.20892715454102 27.3977108001709 56.94525527954102 31.15627098083496 56.94525527954102 C 34.91483306884766 56.94525527954102 38.56214141845703 56.20892715454102 41.99690246582031 54.7567253112793 C 42.8617057800293 54.39094543457031 43.69042587280273 53.98706436157227 44.63468551635742 53.46967315673828 C 44.63471603393555 53.46971893310547 44.63473510742188 53.46974945068359 44.63476181030273 53.46979522705078 C 45.10022735595703 54.23702621459961 45.6715087890625 55.17864608764648 45.78591156005859 56.48248672485352 C 45.07693862915039 56.86249160766602 44.06626892089844 57.36551666259766 43.2453727722168 57.71247482299805 C 39.41814041137695 59.33221435546875 35.35086059570312 60.15344619750977 31.15627098083496 60.15344619750977 Z" stroke="none"/>
      <path d="M 31.15627098083496 59.65344619750977 C 35.28354263305664 59.65344619750977 39.28526306152344 58.84551620483398 43.05072021484375 57.25191497802734 C 43.74723052978516 56.95753479003906 44.58378219604492 56.54824066162109 45.24832916259766 56.20121383666992 C 45.1190185546875 55.37783050537109 44.79193115234375 54.72095489501953 44.45132446289062 54.13682556152344 C 43.66225814819336 54.5560302734375 42.94065856933594 54.90044021606445 42.19161224365234 55.21725463867188 C 38.69491195678711 56.69564437866211 34.98208236694336 57.44525527954102 31.15627098083496 57.44525527954102 C 27.33045196533203 57.44525527954102 23.61762046813965 56.69564437866211 20.12079048156738 55.21719741821289 C 16.74428176879883 53.78905487060547 13.71243095397949 51.7451171875 11.10945129394531 49.14214706420898 C 10.6432409286499 48.67592620849609 10.11853122711182 48.41917419433594 9.631991386413574 48.41917419433594 C 9.227161407470703 48.41917419433594 8.90001106262207 48.60181427001953 8.77821159362793 48.89581680297852 C 8.590930938720703 49.34784698486328 8.886341094970703 50.04054641723633 9.549051284790039 50.70347595214844 C 12.3564510345459 53.51084518432617 15.62432098388672 55.71407699584961 19.26217079162598 57.2520637512207 C 23.02816200256348 58.84550476074219 27.02991104125977 59.65344619750977 31.15627098083496 59.65344619750977 M 31.15627098083496 60.65344619750977 C 26.89530181884766 60.65344619750977 22.76244163513184 59.81890487670898 18.87250137329102 58.17302703857422 C 15.11566162109375 56.58472442626953 11.74090099334717 54.30951690673828 8.841951370239258 51.41058731079102 C 6.766349792480469 49.33431243896484 7.899312496185303 47.4191780090332 9.631992340087891 47.4191780090332 C 10.32007026672363 47.4191780090332 11.10269927978516 47.72117233276367 11.81656169891357 48.43503570556641 C 14.32803153991699 50.94649505615234 17.2530517578125 52.91847610473633 20.51034164428711 54.29619598388672 C 23.88315200805664 55.72220611572266 27.46496200561523 56.44525527954102 31.15627098083496 56.44525527954102 C 34.84757232666016 56.44525527954102 38.42938232421875 55.72220611572266 41.80219268798828 54.29619598388672 C 42.73786163330078 53.90044403076172 43.64925003051758 53.45369720458984 44.81602096557617 52.79694366455078 C 45.32459259033203 53.68752670288086 46.24605178833008 54.90175628662109 46.30356979370117 56.77008438110352 C 45.64334106445312 57.13512420654297 44.43836212158203 57.75107574462891 43.44003295898438 58.17302703857422 C 39.55104064941406 59.81890487670898 35.41818237304688 60.65344619750977 31.15627098083496 60.65344619750977 Z" stroke="none" fill="#c6cbde"/>
    </g>
  </g>
</svg>
