<svg xmlns="http://www.w3.org/2000/svg" width="143" height="143" viewBox="0 0 143 143">
  <g id="lockpick" transform="translate(-5789 -2682)">
    <rect id="Rectangle_14" data-name="Rectangle 14" width="143" height="143" transform="translate(5789 2682)" fill="none"/>
    <g id="lockpick-2" data-name="lockpick" transform="translate(5800.363 2693.363)">
      <circle id="Ellipse_2" data-name="Ellipse 2" cx="61" cy="61" r="61" transform="translate(-0.363 -0.363)" fill="#e4c05c"/>
      <path id="Path_51" data-name="Path 51" d="M0,60.637a60.637,60.637,0,0,0,60.637,60.637V0A60.637,60.637,0,0,0,0,60.637Z" fill="#dda86f"/>
      <ellipse id="Ellipse_3" data-name="Ellipse 3" cx="16.5" cy="17" rx="16.5" ry="17" transform="translate(8.637 43.637)" fill="#bc9064"/>
      <ellipse id="Ellipse_4" data-name="Ellipse 4" cx="16.5" cy="17" rx="16.5" ry="17" transform="translate(79.637 43.637)" fill="#c6a554"/>
      <path id="Path_52" data-name="Path 52" d="M55.636,28.5A17.5,17.5,0,1,0,25.868,40.894c1.52,1.5,2.434,18.183,2.8,20.286l2.17,24.083a3.744,3.744,0,0,0,3.688,3.1h7.209a3.74,3.74,0,0,0,3.686-3.1l2.2-24.234C47.975,59,48.866,42.4,50.338,40.955A17.41,17.41,0,0,0,55.636,28.5Z" transform="translate(22.503 12)" fill="#606c8c"/>
      <ellipse id="Ellipse_5" data-name="Ellipse 5" cx="14.5" cy="15" rx="14.5" ry="15" transform="translate(10.637 45.637)" fill="#d1d4d1"/>
      <ellipse id="Ellipse_6" data-name="Ellipse 6" cx="14.5" cy="15" rx="14.5" ry="15" transform="translate(81.637 45.637)" fill="#d1d4d1"/>
      <path id="Path_53" data-name="Path 53" d="M34.705,72.977l-2.7-2.7,2.532-2.532a2.32,2.32,0,0,0,.694-1.65l-.065-1.018L32,61.909l2.532-2.532a2.32,2.32,0,0,0,.694-1.65l-.065-1.018L32,53.546l2.532-2.532a2.32,2.32,0,0,0,.694-1.65l-.065-1.018L32,45.182l2.532-2.532A2.32,2.32,0,0,0,35.228,41l-.065-1.033-.255-.251-1.681-5.311V20.091a2.091,2.091,0,1,0-4.182,0V34.727L30.77,40.5l-3.04,3.042a2.317,2.317,0,0,0-.686,1.639l.063,1.018,3.161,3.164-2.54,2.543a2.317,2.317,0,0,0-.686,1.639l.063,1.018,3.164,3.164-2.54,2.543a2.317,2.317,0,0,0-.686,1.639l.063,1.018,3.164,3.164-2.54,2.543a2.317,2.317,0,0,0-.686,1.639l.063,1.018,4.642,4.642a2.091,2.091,0,1,0,2.959-2.957Z" transform="translate(29.501 19.637)" fill="#3d324c"/>
      <g id="Group_18" data-name="Group 18" transform="translate(19.431 54.977)">
        <path id="Path_54" data-name="Path 54" d="M17.657,26.293l-2.7,2.7-2.7-2.7L9.293,29.25l2.7,2.7-2.7,2.7,2.957,2.957,2.7-2.7,2.7,2.7,2.957-2.957-2.7-2.7,2.7-2.7Z" transform="translate(-9.293 -26.293)" fill="#fff"/>
        <path id="Path_55" data-name="Path 55" d="M54.613,29.25l-2.957-2.957-2.7,2.7-2.7-2.7L43.293,29.25l2.7,2.7-2.7,2.7,2.957,2.957,2.7-2.7,2.7,2.7,2.957-2.957-2.7-2.7Z" transform="translate(27.798 -26.293)" fill="#fff"/>
      </g>
    </g>
    <g id="Polygon_1" data-name="Polygon 1" transform="translate(5867 2683)" fill="#fff">
      <path d="M 43.07646179199219 47.5 L 15.92354202270508 47.5 C 13.18339157104492 47.5 10.7425422668457 46.07582855224609 9.394271850585938 43.69034957885742 C 8.045991897583008 41.30486679077148 8.084832191467285 38.47918701171875 9.498142242431641 36.13164901733398 L 23.07459259033203 13.58091831207275 C 24.44364166259766 11.30689811706543 26.84567260742188 9.949277877807617 29.50000190734863 9.949277877807617 C 32.15433120727539 9.949277877807617 34.55636215209961 11.30689811706543 35.92541122436523 13.58091831207275 L 49.50186157226562 36.13164901733398 C 50.9151725769043 38.47918701171875 50.95401000976562 41.30486679077148 49.60573196411133 43.69034957885742 C 48.25746154785156 46.07582855224609 45.81661224365234 47.5 43.07646179199219 47.5 Z" stroke="none"/>
      <path d="M 29.50000190734863 11.44927978515625 C 28.48603248596191 11.44927978515625 27.48859214782715 11.70009994506836 26.61549377441406 12.17461776733398 C 25.68506240844727 12.6803092956543 24.92609024047852 13.41375732421875 24.35967254638672 14.35458755493164 L 10.78321075439453 36.90531921386719 C 9.652561187744141 38.78334808349609 9.621501922607422 41.04388809204102 10.70012283325195 42.95227813720703 C 11.77874374389648 44.86065673828125 13.73142242431641 46 15.92354202270508 46 L 43.07646179199219 46 C 45.26856994628906 46 47.22125244140625 44.86066818237305 48.29987335205078 42.95227813720703 C 49.37849426269531 41.04388809204102 49.34743118286133 38.78334808349609 48.21678161621094 36.90531921386719 L 34.64033126831055 14.35458755493164 C 34.07391357421875 13.41375732421875 33.31494140625 12.6803092956543 32.38450241088867 12.17461776733398 C 31.51141166687012 11.70009994506836 30.51396179199219 11.44927978515625 29.50000190734863 11.44927978515625 M 29.50000190734863 8.449275970458984 C 32.48068618774414 8.449275970458984 35.46137237548828 9.901931762695312 37.21049118041992 12.80724716186523 L 50.78694152832031 35.35797882080078 C 54.39827346801758 41.3564567565918 50.07813262939453 49 43.07646179199219 49 L 15.92354202270508 49 C 8.921863555908203 49 4.601722717285156 41.3564567565918 8.213050842285156 35.35797882080078 L 21.78951263427734 12.80724716186523 C 23.53863143920898 9.901931762695312 26.51931762695312 8.449275970458984 29.50000190734863 8.449275970458984 Z" stroke="none" fill="#201547"/>
    </g>
    <text id="_" data-name="!" transform="translate(5892 2725)" fill="#201547" font-size="36" font-family="FilsonSoftMedium, Filson Soft"><tspan x="0" y="0">!</tspan></text>
  </g>
</svg>
