<svg xmlns="http://www.w3.org/2000/svg" width="1000" height="197.022" viewBox="0 0 1000 197.022">
  <g id="logo_colored_s" transform="translate(-3908.605 -319.431)">
    <path id="Path_2" data-name="Path 2" d="M17.987-86.2a8.425,8.425,0,0,0,11.7,0,8.217,8.217,0,0,0,0-11.7,8.217,8.217,0,0,0-11.7,0A8.425,8.425,0,0,0,17.987-86.2Zm23.852-26.328a27.339,27.339,0,0,0,8.551,20.59c5.738,5.4,13.389,8.1,23.065,8.1A32.788,32.788,0,0,0,93.594-90.7l-5.176-7.426A23.541,23.541,0,0,1,73.9-93.514c-6.076,0-11.139-1.8-15.189-5.513A18.681,18.681,0,0,1,52.753-113.2a18.681,18.681,0,0,1,5.963-14.176c4.05-3.713,9.113-5.513,15.189-5.513a23.541,23.541,0,0,1,14.514,4.613l5.176-7.426a32.788,32.788,0,0,0-20.14-6.863c-9.9,0-17.664,2.813-23.29,8.551C44.652-128.28,41.839-121.192,41.839-112.528Zm87.534-30.041a28.468,28.468,0,0,0-20.815,8.663A28.217,28.217,0,0,0,99.9-113.2a28.468,28.468,0,0,0,8.663,20.815,28.363,28.363,0,0,0,20.815,8.551A28.436,28.436,0,0,0,150.3-92.389a28.468,28.468,0,0,0,8.663-20.815,28.4,28.4,0,0,0-8.663-20.7A28.538,28.538,0,0,0,129.373-142.569Zm-18.564,29.478a19.547,19.547,0,0,1,5.4-13.951,17.453,17.453,0,0,1,13.164-5.851,17.115,17.115,0,0,1,13.164,5.851,19.178,19.178,0,0,1,5.513,13.951,19.1,19.1,0,0,1-5.513,13.839,17.394,17.394,0,0,1-13.164,5.738,17.743,17.743,0,0,1-13.164-5.738A19.469,19.469,0,0,1,110.809-113.091ZM221.295-85.076v-27.34c.338-8.1,2.813-14.064,6.3-16.764s6.526-3.713,9.676-3.713c6.638,0,11.476,4.951,11.476,16.089v31.728h10.914V-116.8c0-17.552-7.876-25.765-21.715-25.765-9.113,0-15.414,3.938-19.127,11.814q-5.232-11.814-17.889-11.814c-8.551,0-15.752,4.5-18,12.489v-11.251H172.015v56.256h10.914v-26.1c0-17.777,10.126-21.715,15.977-21.715,6.638,0,11.476,4.951,11.476,16.089v31.728Z" transform="translate(4643.871 462)" fill="#201547"/>
    <path id="Path_16" data-name="Path 16" d="M53.149,160.124a43.246,43.246,0,0,1-10.319-3.585,39.011,39.011,0,0,1-8.712-5.975,43.342,43.342,0,0,1-7.085-8.365v16.7H0V0H27.033V64.176a48.807,48.807,0,0,1,7.421-8.238,41.847,41.847,0,0,1,8.76-5.91,43.319,43.319,0,0,1,10.12-3.561,53.648,53.648,0,0,1,11.5-1.192,64.953,64.953,0,0,1,11.779,1.034A52.182,52.182,0,0,1,87.2,49.423a46.987,46.987,0,0,1,9.348,5.217,48.9,48.9,0,0,1,8.07,7.339,58.918,58.918,0,0,1,4.86,6.177,55.907,55.907,0,0,1,6.882,13.886,60.178,60.178,0,0,1,2.006,7.71H94.789L91.3,93.484a35.674,35.674,0,0,0-2.914-8.231,34.842,34.842,0,0,0-4.868-7.23,28.6,28.6,0,0,0-4.66-4.454,26.442,26.442,0,0,0-5.423-3.156,29.353,29.353,0,0,0-6.205-1.878,37.922,37.922,0,0,0-7.009-.622,35.49,35.49,0,0,0-13.692,2.606,30.274,30.274,0,0,0-10.621,7.366A33.1,33.1,0,0,0,29.035,89.33a43.761,43.761,0,0,0-2.441,14.845,40.663,40.663,0,0,0,2.462,14.385,30.961,30.961,0,0,0,6.851,10.862,29.8,29.8,0,0,0,10.436,6.865,35.938,35.938,0,0,0,13.218,2.394,38.517,38.517,0,0,0,7.047-.622,30.572,30.572,0,0,0,6.305-1.879,27.757,27.757,0,0,0,5.563-3.156,29.666,29.666,0,0,0,4.821-4.454,35.641,35.641,0,0,0,5.28-8.017,37.382,37.382,0,0,0,3.005-9.318l4.912,5.063,6.61-4.788,9.409,6.858,6.353-5.271a64.125,64.125,0,0,1-1.861,8.8,58.607,58.607,0,0,1-3.032,8.2,56.786,56.786,0,0,1-4.2,7.579,58.437,58.437,0,0,1-5.375,6.936,51.613,51.613,0,0,1-8.156,7.339,47.84,47.84,0,0,1-9.289,5.216,51.215,51.215,0,0,1-10.4,3.115,62.067,62.067,0,0,1-11.494,1.034A56.838,56.838,0,0,1,53.149,160.124Zm1.048-37.1v-8.074l3.612-3.557L54.2,107.782V84.3h9.279v7.474l-3.045,5.668,3.045,5.709v19.879Z" transform="translate(3908.605 355.134)" fill="#201547"/>
    <path id="Path_12" data-name="Path 12" d="M758.211,161.319a62.078,62.078,0,0,1-11.494-1.034,51.209,51.209,0,0,1-10.4-3.115,47.832,47.832,0,0,1-9.289-5.216,51.606,51.606,0,0,1-8.156-7.339c-10.062-11.157-15.165-25.206-15.165-41.758a70.818,70.818,0,0,1,.944-11.7,60.145,60.145,0,0,1,2.82-10.714,56.07,56.07,0,0,1,4.674-9.725,58.175,58.175,0,0,1,6.508-8.736,48.907,48.907,0,0,1,8.07-7.339,47,47,0,0,1,9.348-5.216,52.167,52.167,0,0,1,10.584-3.115,64.963,64.963,0,0,1,11.779-1.034,53.635,53.635,0,0,1,11.5,1.192,43.306,43.306,0,0,1,10.12,3.561,41.827,41.827,0,0,1,8.76,5.91,48.8,48.8,0,0,1,7.421,8.238V47.693h27.033V158.9H796.233V142.2a43.359,43.359,0,0,1-7.084,8.366,39.027,39.027,0,0,1-8.712,5.975,43.262,43.262,0,0,1-10.319,3.585A56.846,56.846,0,0,1,758.211,161.319Zm4.835-93.407c-9.9,0-17.591,3.307-23.516,10.11a35.967,35.967,0,0,0-3.75,5.4A35.569,35.569,0,0,0,733.1,89.4a38.874,38.874,0,0,0-1.607,6.552,46.238,46.238,0,0,0-.536,7.129,45.339,45.339,0,0,0,.574,7.29,38.772,38.772,0,0,0,1.707,6.693,35.453,35.453,0,0,0,6.731,11.511,29.653,29.653,0,0,0,4.821,4.454,27.762,27.762,0,0,0,5.563,3.156,30.575,30.575,0,0,0,6.305,1.878,38.521,38.521,0,0,0,7.047.622,36.193,36.193,0,0,0,13.252-2.394,30.161,30.161,0,0,0,10.512-6.865,31.025,31.025,0,0,0,6.927-10.862,40.191,40.191,0,0,0,2.5-14.385c0-10.8-3.091-19.356-9.451-26.154a32.61,32.61,0,0,0-5.11-4.454,30.137,30.137,0,0,0-5.769-3.156,32.235,32.235,0,0,0-6.429-1.878A39.211,39.211,0,0,0,763.046,67.912ZM657.991,161.319a53.563,53.563,0,0,1-7.706-.536,42.443,42.443,0,0,1-6.964-1.607A36.15,36.15,0,0,1,637.1,156.5a34.079,34.079,0,0,1-5.481-3.75,24.783,24.783,0,0,1-4.488-5.2,30.986,30.986,0,0,1-3.231-6.7,44.711,44.711,0,0,1-1.954-8.225,68.343,68.343,0,0,1-.656-9.77V68.352H603.925V47.693h18.681l4.835-29.67h20.879v29.67h33.187V68.352H648.321v58.242c0,8.134,3.523,12.088,10.769,12.088a11.662,11.662,0,0,0,4.406-.828,10.129,10.129,0,0,0,3.479-2.332,10.535,10.535,0,0,0,2.284-3.609,12.989,12.989,0,0,0,.821-4.66,33.412,33.412,0,0,0-.357-5.275,13.616,13.616,0,0,0-1.181-3.956h22.2a29.594,29.594,0,0,1,2.418,12.528,32.247,32.247,0,0,1-2.28,12.225,27.139,27.139,0,0,1-6.731,9.753,30.935,30.935,0,0,1-11.016,6.456A46.322,46.322,0,0,1,657.991,161.319Zm-270.989,0a62.077,62.077,0,0,1-11.494-1.034,51.209,51.209,0,0,1-10.4-3.115,47.834,47.834,0,0,1-9.289-5.216,51.605,51.605,0,0,1-8.156-7.339C337.6,133.459,332.5,119.409,332.5,102.857a70.821,70.821,0,0,1,.944-11.7,60.143,60.143,0,0,1,2.82-10.714,56.07,56.07,0,0,1,4.674-9.725,58.177,58.177,0,0,1,6.508-8.736,48.91,48.91,0,0,1,8.07-7.339,47,47,0,0,1,9.347-5.216,52.172,52.172,0,0,1,10.584-3.115,64.961,64.961,0,0,1,11.779-1.034,53.636,53.636,0,0,1,11.5,1.192,43.307,43.307,0,0,1,10.12,3.561,41.827,41.827,0,0,1,8.76,5.91,48.8,48.8,0,0,1,7.421,8.238V47.693h27.033V158.9H425.024V142.2a43.359,43.359,0,0,1-7.084,8.366,39.029,39.029,0,0,1-8.712,5.975,43.266,43.266,0,0,1-10.319,3.585A56.845,56.845,0,0,1,387,161.319Zm4.835-93.407c-9.9,0-17.592,3.307-23.517,10.11a35.984,35.984,0,0,0-3.75,5.4,35.59,35.59,0,0,0-2.678,5.975,38.883,38.883,0,0,0-1.607,6.552,46.238,46.238,0,0,0-.536,7.129,45.342,45.342,0,0,0,.574,7.29,38.774,38.774,0,0,0,1.706,6.693,35.454,35.454,0,0,0,6.731,11.511,29.653,29.653,0,0,0,4.822,4.454,27.76,27.76,0,0,0,5.563,3.156,30.572,30.572,0,0,0,6.3,1.878,38.521,38.521,0,0,0,7.047.622,36.2,36.2,0,0,0,13.252-2.394,30.161,30.161,0,0,0,10.512-6.865,31.026,31.026,0,0,0,6.927-10.862,40.2,40.2,0,0,0,2.5-14.385c0-10.8-3.091-19.356-9.45-26.154a32.606,32.606,0,0,0-5.11-4.454,30.133,30.133,0,0,0-5.769-3.156,32.243,32.243,0,0,0-6.429-1.878A39.211,39.211,0,0,0,391.837,67.912ZM110.519,161.319a62.074,62.074,0,0,1-11.494-1.034,51.209,51.209,0,0,1-10.4-3.115,47.833,47.833,0,0,1-9.289-5.216,51.6,51.6,0,0,1-8.156-7.339,58.667,58.667,0,0,1-4.723-5.969,56.788,56.788,0,0,1-3.844-6.453,57.585,57.585,0,0,1-2.965-6.924,61.091,61.091,0,0,1-2.087-7.381l-1.241,1.372a2.9,2.9,0,0,1-2.075.943,3.584,3.584,0,0,1-1.592-.419l-10.478-6.636-7.16,6.461a2.824,2.824,0,0,1-2,.78,2.683,2.683,0,0,1-1.5-.431l-7.335-5.239-3.842,4.54a4,4,0,0,1-2.1,1.048,3.108,3.108,0,0,1-2.1-.7L.786,104.243a2.741,2.741,0,0,1,0-3.842l12.05-13.1a2.791,2.791,0,0,1,1.921-.873l23.711-.06,19.5-.049A56.465,56.465,0,0,1,70.958,61.978a48.921,48.921,0,0,1,8.07-7.339,47,47,0,0,1,9.348-5.216A52.168,52.168,0,0,1,98.96,46.308a64.961,64.961,0,0,1,11.779-1.034,53.636,53.636,0,0,1,11.5,1.192,43.307,43.307,0,0,1,10.12,3.561,41.827,41.827,0,0,1,8.76,5.91,48.8,48.8,0,0,1,7.421,8.238V47.693h27.033V158.9H148.541V142.2a43.353,43.353,0,0,1-7.085,8.366,39.023,39.023,0,0,1-8.712,5.975,43.266,43.266,0,0,1-10.319,3.585A56.846,56.846,0,0,1,110.519,161.319Zm-47.7-56.064a2.932,2.932,0,0,1,1.71.559L75.7,114.546h5.588l6.373,1.328a29.821,29.821,0,0,0,10.583,12.348,30,30,0,0,0,5.179,2.739,30.88,30.88,0,0,0,22.65.234,29.418,29.418,0,0,0,9.541-6.032c.228-.214.458-.437.683-.662a29.462,29.462,0,0,0,3.671-4.48,29.972,29.972,0,0,0,2.72-5.086,30.517,30.517,0,0,0,2.338-11.362c0-.124,0-.251,0-.376a30.421,30.421,0,0,0-2.2-11.5,29.733,29.733,0,0,0-11.083-13.523,29.993,29.993,0,0,0-5.179-2.74,30.861,30.861,0,0,0-23.073-.065,29.5,29.5,0,0,0-9.8,6.527c-.54.54-1.064,1.107-1.559,1.687l-.006.006-.006.007-.016.019-.016.019a29.671,29.671,0,0,0-3.829,5.751c-3.045,1.126-6.724,2.469-6.956,2.469-.006,0-.009,0-.011,0a0,0,0,0,1,0,0H15.978l-9.43,10.129L17.9,113.323l3.493-4.191a2.483,2.483,0,0,1,2.033-1.07,2.6,2.6,0,0,1,.313.019,2.894,2.894,0,0,1,1.321.526l8.033,5.239,7.16-6.461a2.547,2.547,0,0,1,1.85-.707,4.2,4.2,0,0,1,1.567.326l0,0,.072.03,10.128,6.636,2.557-2.819,4.253-4.69A3.008,3.008,0,0,1,62.814,105.255ZM881.068,158.9H854.035V47.693h26.593V72.308A37.248,37.248,0,0,1,885,60.666a32.165,32.165,0,0,1,7.17-8.468,29.561,29.561,0,0,1,18.791-6.923,33.417,33.417,0,0,1,9.231,1.539V73.407a30.879,30.879,0,0,0-6.126-1.676,39.408,39.408,0,0,0-6.621-.522,26.777,26.777,0,0,0-4.036.305,25.064,25.064,0,0,0-4.35,1.065,22.629,22.629,0,0,0-8.592,5.306,28.325,28.325,0,0,0-6.7,11.034,45.954,45.954,0,0,0-1.981,8.225,69.753,69.753,0,0,0-.719,10.329V158.9ZM587,158.9H559.969V97.583a48.681,48.681,0,0,0-1.514-12.668,26.827,26.827,0,0,0-4.337-9.227,18.515,18.515,0,0,0-6.851-5.642,20.947,20.947,0,0,0-9.056-1.913,26.765,26.765,0,0,0-10.735,2.188,25.884,25.884,0,0,0-9.045,6.576,31.561,31.561,0,0,0-6.243,10.986,48.087,48.087,0,0,0-2.328,15.415v55.6H482.826V0h27.033V66.374a39.967,39.967,0,0,1,6.092-9.231,33.515,33.515,0,0,1,8.029-6.594,36.64,36.64,0,0,1,9.925-3.956,52.66,52.66,0,0,1,21.379-.424,38.529,38.529,0,0,1,8.353,2.639,33.8,33.8,0,0,1,7.1,4.313,34.617,34.617,0,0,1,5.829,5.917,40.9,40.9,0,0,1,4.552,7.452,53.145,53.145,0,0,1,3.264,8.918A84.255,84.255,0,0,1,587,97.363V158.9Zm-276.484,0H283.486V97.583a49.672,49.672,0,0,0-1.48-12.668,26.884,26.884,0,0,0-4.262-9.227,18.242,18.242,0,0,0-6.776-5.642,20.735,20.735,0,0,0-9.021-1.913A27.782,27.782,0,0,0,250.436,70.5,25.379,25.379,0,0,0,241.4,77.39c-5.248,6.246-8.022,15.2-8.022,25.907v55.6H206.343V47.693h27.033V66.374a39.879,39.879,0,0,1,6.1-9.231,33.436,33.436,0,0,1,8.053-6.594,36.862,36.862,0,0,1,9.99-3.956,51.026,51.026,0,0,1,11.906-1.319,49.453,49.453,0,0,1,9.591.895,38.232,38.232,0,0,1,8.328,2.639,33.48,33.48,0,0,1,7.061,4.313,34.373,34.373,0,0,1,5.789,5.917,40.805,40.805,0,0,1,4.511,7.452,53.342,53.342,0,0,1,3.229,8.918,85.227,85.227,0,0,1,2.589,21.954V158.9ZM28.2,101.274a3.005,3.005,0,0,1-2.794-2.794c0-.036,0-.068,0-.1a2.85,2.85,0,0,1,.908-1.859,2.784,2.784,0,0,1,1.884-.837H80.242c.109.007,2.669.162,5.576.276a30.675,30.675,0,0,0-.769,4.85c-2.595.07-5.555.279-5.679.288l-23.338.08-27.585.094Z" transform="translate(3988.416 355.134)" fill="#d02d46"/>
    <g id="Group_7" data-name="Group 7" transform="translate(4115.232 469.469) rotate(-135)">
      <g id="Group_4" data-name="Group 4" transform="translate(0 0)">
        <path id="Path_5" data-name="Path 5" d="M16.43,2.711a9.725,9.725,0,0,0-13.473,0A9.458,9.458,0,0,0,0,9.612a9.979,9.979,0,0,0,2.629,6.9,9.529,9.529,0,0,0,13.8,0,9.529,9.529,0,0,0,0-13.8Z" transform="translate(0 0)" fill="#d02d46"/>
      </g>
    </g>
  </g>
</svg>
