<svg xmlns="http://www.w3.org/2000/svg" width="2479.75" height="488.564" viewBox="0 0 2479.75 488.564">
  <g id="logo_white" transform="translate(-3908.605 -319.431)">
    <path id="Path_2" data-name="Path 2" d="M21.483-2.79a20.892,20.892,0,0,0,29.016,0,20.377,20.377,0,0,0,0-29.016,20.377,20.377,0,0,0-29.016,0A20.892,20.892,0,0,0,21.483-2.79ZM80.631-68.076c0,20.367,6.975,37.386,21.2,51.057,14.229,13.392,33.2,20.088,57.195,20.088,18.135,0,34.6-5.58,49.941-17.019L196.137-32.364c-10.044,7.533-22.041,11.439-35.991,11.439-15.066,0-27.621-4.464-37.665-13.671-9.765-9.207-14.787-20.925-14.787-35.154S112.716-95.7,122.481-104.9c10.044-9.207,22.6-13.671,37.665-13.671,13.95,0,25.947,3.906,35.991,11.439l12.834-18.414c-15.345-11.439-31.806-17.019-49.941-17.019-24.552,0-43.8,6.975-57.753,21.2C87.606-107.136,80.631-89.559,80.631-68.076Zm217.062-74.493c-20.088,0-37.386,7.254-51.615,21.483S224.6-89.838,224.6-69.75s7.254,37.386,21.483,51.615,31.527,21.2,51.615,21.2c20.367,0,37.665-6.975,51.894-21.2S371.07-49.662,371.07-69.75c0-19.809-7.254-37.107-21.483-51.336S318.06-142.569,297.693-142.569Zm-46.035,73.1c0-13.671,4.464-25.11,13.392-34.6,9.207-9.765,20.088-14.508,32.643-14.508,12.834,0,23.715,4.743,32.643,14.508,9.207,9.486,13.671,20.925,13.671,34.6,0,13.392-4.464,24.831-13.671,34.317q-13.392,14.229-32.643,14.229-18.832,0-32.643-14.229Q251.658-49.383,251.658-69.471ZM525.636,0V-67.8c.837-20.088,6.975-34.875,15.624-41.571s16.182-9.207,23.994-9.207c16.461,0,28.458,12.276,28.458,39.9V0h27.063V-78.678c0-43.524-19.53-63.891-53.847-63.891-22.6,0-38.223,9.765-47.43,29.3q-12.973-29.3-44.361-29.3c-21.2,0-39.06,11.16-44.64,30.969v-27.9H403.434V0H430.5V-64.728c0-44.082,25.11-53.847,39.618-53.847,16.461,0,28.458,12.276,28.458,39.9V0Z" transform="translate(5755 462)" fill="#fff"/>
    <path id="Path_16" data-name="Path 16" d="M131.8,397.066a107.239,107.239,0,0,1-25.589-8.89,96.739,96.739,0,0,1-21.6-14.818,107.477,107.477,0,0,1-17.568-20.744v41.421H0V0H67.035V159.14a121.028,121.028,0,0,1,18.4-20.429,103.771,103.771,0,0,1,21.723-14.656,107.42,107.42,0,0,1,25.1-8.831,133.033,133.033,0,0,1,28.519-2.955,161.068,161.068,0,0,1,29.209,2.563,129.4,129.4,0,0,1,26.245,7.724,116.515,116.515,0,0,1,23.18,12.936,121.265,121.265,0,0,1,20.012,18.2,146.1,146.1,0,0,1,12.053,15.318,138.634,138.634,0,0,1,17.066,34.434,149.226,149.226,0,0,1,4.974,19.118h-58.46l-8.654,9.256a88.463,88.463,0,0,0-7.227-20.411,86.4,86.4,0,0,0-12.073-17.93,70.91,70.91,0,0,0-11.555-11.045A65.57,65.57,0,0,0,182.1,174.6a72.79,72.79,0,0,0-15.387-4.658,94.038,94.038,0,0,0-17.381-1.542,88.007,88.007,0,0,0-33.952,6.463A75.071,75.071,0,0,0,89.04,193.135,82.066,82.066,0,0,0,72,221.517a108.517,108.517,0,0,0-6.054,36.813A100.833,100.833,0,0,0,72.05,294,76.776,76.776,0,0,0,89.04,320.937a73.9,73.9,0,0,0,25.879,17.023A89.119,89.119,0,0,0,147.7,343.9a95.51,95.51,0,0,0,17.474-1.542A75.809,75.809,0,0,0,180.8,337.7a68.831,68.831,0,0,0,13.8-7.826,73.564,73.564,0,0,0,11.956-11.045,88.38,88.38,0,0,0,13.094-19.879,92.7,92.7,0,0,0,7.452-23.107l12.18,12.556,16.391-11.873L279,293.528l15.754-13.072a159.016,159.016,0,0,1-4.614,21.827,145.33,145.33,0,0,1-7.519,20.335A140.815,140.815,0,0,1,272.2,341.411a144.907,144.907,0,0,1-13.328,17.2,127.989,127.989,0,0,1-20.225,18.2,118.63,118.63,0,0,1-23.035,12.935,127,127,0,0,1-25.794,7.724,153.909,153.909,0,0,1-28.5,2.563A140.945,140.945,0,0,1,131.8,397.066Zm2.6-91.991V285.054l8.958-8.82-8.958-8.961V209.035H157.4v18.534l-7.55,14.056,7.55,14.157v49.294Z" transform="translate(3908.605 407.965)" fill="#fff"/>
    <path id="Path_12" data-name="Path 12" d="M1880.174,400.03a153.939,153.939,0,0,1-28.5-2.563,126.985,126.985,0,0,1-25.794-7.724,118.611,118.611,0,0,1-23.035-12.935,127.972,127.972,0,0,1-20.225-18.2c-24.953-27.666-37.6-62.506-37.6-103.55a175.615,175.615,0,0,1,2.342-29.021,149.141,149.141,0,0,1,6.992-26.569,139.042,139.042,0,0,1,11.59-24.116,144.263,144.263,0,0,1,16.137-21.663,121.282,121.282,0,0,1,20.012-18.2,116.552,116.552,0,0,1,23.18-12.935,129.364,129.364,0,0,1,26.245-7.724,161.093,161.093,0,0,1,29.209-2.563,133,133,0,0,1,28.519,2.955,107.386,107.386,0,0,1,25.1,8.831,103.721,103.721,0,0,1,21.723,14.655,121.006,121.006,0,0,1,18.4,20.429V118.265h67.035v275.77h-67.035V352.615a107.52,107.52,0,0,1-17.568,20.745,96.777,96.777,0,0,1-21.6,14.817,107.277,107.277,0,0,1-25.59,8.891A140.964,140.964,0,0,1,1880.174,400.03Zm11.99-231.625c-24.547,0-43.622,8.2-58.315,25.069a89.189,89.189,0,0,0-9.3,13.387,88.2,88.2,0,0,0-6.642,14.817,96.379,96.379,0,0,0-3.985,16.248,114.648,114.648,0,0,0-1.329,17.678,112.43,112.43,0,0,0,1.422,18.078,96.146,96.146,0,0,0,4.232,16.6,87.911,87.911,0,0,0,16.691,28.544,73.529,73.529,0,0,0,11.956,11.045,68.842,68.842,0,0,0,13.8,7.826,75.815,75.815,0,0,0,15.635,4.658A95.522,95.522,0,0,0,1893.8,343.9a89.751,89.751,0,0,0,32.862-5.935,74.791,74.791,0,0,0,26.066-17.023A76.933,76.933,0,0,0,1969.9,294a99.662,99.662,0,0,0,6.191-35.672c0-26.784-7.666-48-23.435-64.855a80.867,80.867,0,0,0-12.671-11.044,74.735,74.735,0,0,0-14.306-7.826,79.938,79.938,0,0,0-15.942-4.658A97.233,97.233,0,0,0,1892.164,168.405ZM1631.653,400.03a132.819,132.819,0,0,1-19.109-1.328,105.248,105.248,0,0,1-17.27-3.986,89.651,89.651,0,0,1-15.43-6.642,84.517,84.517,0,0,1-13.591-9.3,61.458,61.458,0,0,1-11.13-12.884,76.835,76.835,0,0,1-8.013-16.614,110.858,110.858,0,0,1-4.846-20.395,169.479,169.479,0,0,1-1.626-24.227V169.5h-43.055v-51.23h46.325L1555.9,44.69h51.775v73.575h82.3V169.5h-82.3V313.92c0,20.17,8.735,29.975,26.7,29.975a28.919,28.919,0,0,0,10.926-2.052,25.119,25.119,0,0,0,8.626-5.783,26.124,26.124,0,0,0,5.663-8.95,32.211,32.211,0,0,0,2.035-11.556,82.867,82.867,0,0,0-.886-13.08,33.764,33.764,0,0,0-2.929-9.811h55.045c3.978,8.525,5.995,18.976,5.995,31.065a79.962,79.962,0,0,1-5.654,30.315,67.3,67.3,0,0,1-16.691,24.185,76.71,76.71,0,0,1-27.318,16.009C1658.083,398.082,1645.453,400.03,1631.653,400.03Zm-671.984,0a153.938,153.938,0,0,1-28.5-2.563,126.985,126.985,0,0,1-25.794-7.724,118.614,118.614,0,0,1-23.035-12.935,127.967,127.967,0,0,1-20.225-18.2c-24.953-27.666-37.6-62.506-37.6-103.55a175.615,175.615,0,0,1,2.342-29.021,149.131,149.131,0,0,1,6.992-26.569,139.037,139.037,0,0,1,11.59-24.116,144.263,144.263,0,0,1,16.137-21.663,121.284,121.284,0,0,1,20.012-18.2,116.553,116.553,0,0,1,23.179-12.935,129.372,129.372,0,0,1,26.245-7.724,161.088,161.088,0,0,1,29.209-2.563,133,133,0,0,1,28.519,2.955,107.392,107.392,0,0,1,25.1,8.831,103.721,103.721,0,0,1,21.723,14.655,121.012,121.012,0,0,1,18.4,20.429V118.265h67.035v275.77h-67.035V352.615a107.516,107.516,0,0,1-17.568,20.745,96.782,96.782,0,0,1-21.6,14.817,107.29,107.29,0,0,1-25.589,8.891A140.961,140.961,0,0,1,959.669,400.03Zm11.99-231.625c-24.547,0-43.623,8.2-58.316,25.069a89.23,89.23,0,0,0-9.3,13.387,88.253,88.253,0,0,0-6.642,14.817,96.425,96.425,0,0,0-3.985,16.248,114.656,114.656,0,0,0-1.329,17.678,112.437,112.437,0,0,0,1.422,18.078,96.148,96.148,0,0,0,4.232,16.6,87.918,87.918,0,0,0,16.691,28.544A73.533,73.533,0,0,0,926.39,329.87a68.838,68.838,0,0,0,13.795,7.826,75.811,75.811,0,0,0,15.635,4.658,95.521,95.521,0,0,0,17.474,1.542,89.755,89.755,0,0,0,32.862-5.935,74.791,74.791,0,0,0,26.066-17.023A76.936,76.936,0,0,0,1049.4,294a99.672,99.672,0,0,0,6.191-35.672c0-26.785-7.665-48-23.434-64.855a80.854,80.854,0,0,0-12.672-11.044,74.724,74.724,0,0,0-14.306-7.826,79.956,79.956,0,0,0-15.941-4.658A97.235,97.235,0,0,0,971.659,168.405ZM274.059,400.03a153.931,153.931,0,0,1-28.5-2.563,126.985,126.985,0,0,1-25.794-7.724,118.613,118.613,0,0,1-23.035-12.935,127.946,127.946,0,0,1-20.225-18.2,145.484,145.484,0,0,1-11.711-14.8,140.824,140.824,0,0,1-9.533-16,142.8,142.8,0,0,1-7.354-17.169,151.489,151.489,0,0,1-5.175-18.3l-3.077,3.4a7.183,7.183,0,0,1-5.145,2.339,8.888,8.888,0,0,1-3.949-1.039L104.578,280.58,86.824,296.6a7,7,0,0,1-4.949,1.935,6.652,6.652,0,0,1-3.712-1.069L59.975,284.478l-9.526,11.258a9.918,9.918,0,0,1-5.2,2.6c-1.042,0-3.632-.169-5.2-1.732L1.948,258.5a6.8,6.8,0,0,1,0-9.528l29.88-32.477a6.922,6.922,0,0,1,4.763-2.166l58.8-.148,48.357-.122a140.02,140.02,0,0,1,32.214-60.365,121.313,121.313,0,0,1,20.012-18.2,116.556,116.556,0,0,1,23.18-12.935,129.364,129.364,0,0,1,26.245-7.724A161.087,161.087,0,0,1,274.6,112.27a133,133,0,0,1,28.519,2.955,107.392,107.392,0,0,1,25.1,8.831,103.72,103.72,0,0,1,21.723,14.655,121.008,121.008,0,0,1,18.4,20.429V118.265h67.035v275.77H368.344V352.615a107.5,107.5,0,0,1-17.568,20.745,96.768,96.768,0,0,1-21.6,14.817,107.29,107.29,0,0,1-25.589,8.891A140.963,140.963,0,0,1,274.059,400.03ZM155.764,261.007a7.272,7.272,0,0,1,4.241,1.387l27.715,21.651h13.857l15.8,3.293a73.949,73.949,0,0,0,26.242,30.619,74.4,74.4,0,0,0,12.842,6.793,76.575,76.575,0,0,0,56.166.579,72.95,72.95,0,0,0,23.659-14.959c.564-.53,1.135-1.083,1.694-1.643a73.057,73.057,0,0,0,9.1-11.11,74.326,74.326,0,0,0,6.745-12.611,75.674,75.674,0,0,0,5.8-28.176c0-.308.006-.622.006-.933a75.437,75.437,0,0,0-5.467-28.526,73.731,73.731,0,0,0-27.484-33.533,74.376,74.376,0,0,0-12.842-6.794,76.528,76.528,0,0,0-57.215-.162,73.164,73.164,0,0,0-24.3,16.185c-1.338,1.338-2.639,2.746-3.866,4.184l-.014.016-.014.016-.04.048-.041.048a73.577,73.577,0,0,0-9.494,14.261c-7.552,2.793-16.674,6.123-17.248,6.123-.015,0-.023,0-.027-.007a.007.007,0,0,1,0-.007H39.623L16.239,252.867l28.148,28.147,8.661-10.392a6.158,6.158,0,0,1,5.042-2.652,6.434,6.434,0,0,1,.777.047,7.177,7.177,0,0,1,3.275,1.305l19.92,12.991L99.815,266.29a6.316,6.316,0,0,1,4.588-1.752,10.422,10.422,0,0,1,3.885.807l.01,0,.178.074,25.115,16.456,6.341-6.991,10.547-11.63A7.46,7.46,0,0,1,155.764,261.007Zm2029.064,133.03h-67.035V118.265h65.945v61.04a92.368,92.368,0,0,1,10.832-28.868,79.762,79.762,0,0,1,17.781-21,73.3,73.3,0,0,1,46.6-17.168c6.58,0,14.281,1.284,22.89,3.815V182.03a76.573,76.573,0,0,0-15.192-4.156,97.722,97.722,0,0,0-16.418-1.295,66.4,66.4,0,0,0-10.008.757,62.152,62.152,0,0,0-10.788,2.641,56.113,56.113,0,0,0-21.306,13.157c-7.146,7.035-12.733,16.241-16.606,27.361a113.958,113.958,0,0,0-4.911,20.4,172.968,172.968,0,0,0-1.782,25.614v127.53Zm-729.21,0h-67.035V241.98a120.721,120.721,0,0,0-3.755-31.414,66.523,66.523,0,0,0-10.755-22.882,45.914,45.914,0,0,0-16.989-13.991,51.944,51.944,0,0,0-22.456-4.743,66.371,66.371,0,0,0-26.62,5.424,64.188,64.188,0,0,0-22.43,16.307,78.264,78.264,0,0,0-15.481,27.242c-3.831,11.308-5.774,24.169-5.774,38.226V394.035h-67.035V0h67.035V164.59a99.11,99.11,0,0,1,15.107-22.89,83.108,83.108,0,0,1,19.909-16.35,90.859,90.859,0,0,1,24.611-9.81,130.584,130.584,0,0,1,53.014-1.051,95.544,95.544,0,0,1,20.714,6.544,83.811,83.811,0,0,1,17.6,10.694,85.842,85.842,0,0,1,14.455,14.674,101.423,101.423,0,0,1,11.287,18.48,131.8,131.8,0,0,1,8.094,22.114c4.317,15.883,6.506,34.2,6.506,54.441v152.6Zm-685.61,0H702.974V241.98a123.175,123.175,0,0,0-3.67-31.414,66.665,66.665,0,0,0-10.568-22.882,45.236,45.236,0,0,0-16.8-13.991,51.418,51.418,0,0,0-22.371-4.743,68.892,68.892,0,0,0-28.544,5.884,62.935,62.935,0,0,0-22.413,17.074c-13.014,15.489-19.893,37.7-19.893,64.242V394.035H511.679V118.265h67.034V164.59a98.89,98.89,0,0,1,15.115-22.89A82.911,82.911,0,0,1,613.8,125.35a91.408,91.408,0,0,1,24.772-9.81,126.531,126.531,0,0,1,29.524-3.27,122.631,122.631,0,0,1,23.782,2.219,94.808,94.808,0,0,1,20.652,6.544,83.024,83.024,0,0,1,17.51,10.694A85.236,85.236,0,0,1,744.394,146.4a101.19,101.19,0,0,1,11.187,18.48,132.283,132.283,0,0,1,8.007,22.114c4.261,15.863,6.421,34.179,6.421,54.441v152.6ZM69.935,251.134a7.452,7.452,0,0,1-6.929-6.928c0-.089,0-.168.006-.243a7.068,7.068,0,0,1,2.252-4.611,6.9,6.9,0,0,1,4.672-2.075H198.979c.27.017,6.619.4,13.827.683a76.067,76.067,0,0,0-1.906,12.027c-6.435.173-13.774.691-14.084.713l-57.872.2-68.4.233Z" transform="translate(4106.516 407.965)" fill="#fff"/>
    <g id="Group_7" data-name="Group 7" transform="translate(4420.989 691.488) rotate(-135)">
      <g id="Group_4" data-name="Group 4" transform="translate(0 0)">
        <path id="Path_5" data-name="Path 5" d="M40.742,6.722c-8.963-8.963-24.445-8.963-33.409,0A23.452,23.452,0,0,0,0,23.834c0,6.519,2.445,13.037,6.519,17.112a23.63,23.63,0,0,0,34.223,0,23.63,23.63,0,0,0,0-34.223Z" transform="translate(0 0)" fill="#fff"/>
      </g>
    </g>
  </g>
</svg>
