<svg xmlns="http://www.w3.org/2000/svg" width="143" height="143" viewBox="0 0 143 143">
  <g id="money" transform="translate(-5462 -2947)">
    <rect id="Rectangle_11" data-name="Rectangle 11" width="143" height="143" transform="translate(5462 2947)" fill="none"/>
    <g id="padlock" transform="translate(5474.576 2958.663)">
      <circle id="Ellipse_9" data-name="Ellipse 9" cx="45.5" cy="45.5" r="45.5" transform="translate(0.424 29.337)" fill="#0e9aa7"/>
      <circle id="Ellipse_10" data-name="Ellipse 10" cx="21" cy="21" r="21" transform="translate(25.424 53.337)" fill="#e6e7e8"/>
      <g id="Group_21" data-name="Group 21" transform="translate(4.257 33.287)">
        <path id="Path_66" data-name="Path 66" d="M23.08,16A2.08,2.08,0,0,0,21,18.08V26.4a2.08,2.08,0,0,0,4.161,0V18.08A2.08,2.08,0,0,0,23.08,16Z" transform="translate(18.528 -16)" fill="#67b9cc"/>
        <path id="Path_67" data-name="Path 67" d="M23.08,50A2.08,2.08,0,0,0,21,52.08V60.4a2.08,2.08,0,0,0,4.161,0V52.08A2.08,2.08,0,0,0,23.08,50Z" transform="translate(18.528 20.735)" fill="#67b9cc"/>
        <path id="Path_68" data-name="Path 68" d="M46.4,35H38.08a2.08,2.08,0,0,0,0,4.161H46.4A2.08,2.08,0,0,0,46.4,35Z" transform="translate(34.735 4.528)" fill="#67b9cc"/>
        <path id="Path_69" data-name="Path 69" d="M12.4,39.161A2.08,2.08,0,1,0,12.4,35H4.08a2.08,2.08,0,1,0,0,4.161Z" transform="translate(-2 4.528)" fill="#67b9cc"/>
        <path id="Path_70" data-name="Path 70" d="M32.215,31a2.079,2.079,0,0,0,2.942,0l5.886-5.883A2.08,2.08,0,0,0,38.1,22.176l-5.886,5.883A2.082,2.082,0,0,0,32.215,31Z" transform="translate(29.988 -9.987)" fill="#67b9cc"/>
        <path id="Path_71" data-name="Path 71" d="M17,46.216a2.078,2.078,0,0,0-2.942,0L8.175,52.1a2.08,2.08,0,1,0,2.942,2.942L17,49.158A2.082,2.082,0,0,0,17,46.216Z" transform="translate(4.012 15.987)" fill="#67b9cc"/>
        <path id="Path_72" data-name="Path 72" d="M35.158,46.216a2.08,2.08,0,1,0-2.942,2.942L38.1,55.041A2.08,2.08,0,1,0,41.043,52.1Z" transform="translate(29.987 15.987)" fill="#67b9cc"/>
        <path id="Path_73" data-name="Path 73" d="M14.06,31A2.08,2.08,0,1,0,17,28.059l-5.886-5.883a2.08,2.08,0,1,0-2.942,2.942Z" transform="translate(4.012 -9.987)" fill="#67b9cc"/>
        <path id="Path_74" data-name="Path 74" d="M29.54,29.635a2.08,2.08,0,0,0,2.842-.761l4.161-7.207a2.08,2.08,0,0,0-3.6-2.08l-4.161,7.207A2.079,2.079,0,0,0,29.54,29.635Z" transform="translate(26.631 -13.249)" fill="#67b9cc"/>
        <path id="Path_75" data-name="Path 75" d="M18.782,48.269a2.079,2.079,0,0,0-2.842.761l-4.161,7.207a2.08,2.08,0,1,0,3.6,2.08l4.161-7.207A2.079,2.079,0,0,0,18.782,48.269Z" transform="translate(8.264 18.563)" fill="#67b9cc"/>
        <path id="Path_76" data-name="Path 76" d="M44.318,46.939l-7.207-4.161a2.08,2.08,0,1,0-2.08,3.6l7.207,4.161a2.08,2.08,0,1,0,2.08-3.6Z" transform="translate(32.564 12.632)" fill="#67b9cc"/>
        <path id="Path_77" data-name="Path 77" d="M5.585,29.383l7.207,4.161a2.08,2.08,0,0,0,2.08-3.6L7.666,25.78a2.08,2.08,0,1,0-2.08,3.6Z" transform="translate(0.75 -5.737)" fill="#67b9cc"/>
        <path id="Path_78" data-name="Path 78" d="M29.655,16.719a2.079,2.079,0,0,0-2.549,1.471l-2.153,8.037a2.08,2.08,0,0,0,1.471,2.549,2.107,2.107,0,0,0,.539.071A2.079,2.079,0,0,0,28.97,27.3l2.153-8.037A2.076,2.076,0,0,0,29.655,16.719Z" transform="translate(22.722 -15.3)" fill="#67b9cc"/>
        <path id="Path_79" data-name="Path 79" d="M20.855,49.561a2.074,2.074,0,0,0-2.549,1.471l-2.153,8.037a2.08,2.08,0,0,0,1.471,2.549,2.107,2.107,0,0,0,.539.071,2.079,2.079,0,0,0,2.008-1.542l2.153-8.037A2.076,2.076,0,0,0,20.855,49.561Z" transform="translate(13.214 20.182)" fill="#67b9cc"/>
        <path id="Path_80" data-name="Path 80" d="M46.146,41.109l-8.039-2.155a2.081,2.081,0,0,0-1.078,4.019l8.039,2.155a2.081,2.081,0,0,0,1.078-4.019Z" transform="translate(34.181 8.722)" fill="#67b9cc"/>
        <path id="Path_81" data-name="Path 81" d="M4.191,34.173l8.039,2.155a2.08,2.08,0,0,0,1.076-4.019L5.266,30.154a2.08,2.08,0,1,0-1.076,4.019Z" transform="translate(-1.301 -0.786)" fill="#67b9cc"/>
        <path id="Path_82" data-name="Path 82" d="M20.173,18.191a2.081,2.081,0,1,0-4.019,1.078l2.153,8.037a2.08,2.08,0,1,0,4.017-1.078Z" transform="translate(13.214 -15.301)" fill="#67b9cc"/>
        <path id="Path_83" data-name="Path 83" d="M28.973,51.032a2.081,2.081,0,0,0-4.019,1.078l2.153,8.037a2.08,2.08,0,1,0,4.017-1.078Z" transform="translate(22.722 20.181)" fill="#67b9cc"/>
        <path id="Path_84" data-name="Path 84" d="M35.56,34.858a2.079,2.079,0,0,0,2.546,1.471l8.039-2.155a2.081,2.081,0,0,0-1.078-4.019l-8.039,2.155A2.081,2.081,0,0,0,35.56,34.858Z" transform="translate(34.182 -0.786)" fill="#67b9cc"/>
        <path id="Path_85" data-name="Path 85" d="M14.776,40.425a2.077,2.077,0,0,0-2.549-1.471L4.189,41.109a2.08,2.08,0,1,0,1.076,4.019L13.3,42.973A2.08,2.08,0,0,0,14.776,40.425Z" transform="translate(-1.301 8.721)" fill="#67b9cc"/>
        <path id="Path_86" data-name="Path 86" d="M15.382,19.587a2.08,2.08,0,0,0-3.6,2.08l4.161,7.207a2.08,2.08,0,0,0,3.6-2.08Z" transform="translate(8.264 -13.25)" fill="#67b9cc"/>
        <path id="Path_87" data-name="Path 87" d="M32.382,49.031a2.08,2.08,0,1,0-3.6,2.08l4.161,7.207a2.08,2.08,0,1,0,3.6-2.08Z" transform="translate(26.631 18.562)" fill="#67b9cc"/>
        <path id="Path_88" data-name="Path 88" d="M34.269,32.783a2.08,2.08,0,0,0,2.842.761l7.207-4.161a2.08,2.08,0,1,0-2.08-3.6L35.03,29.941A2.081,2.081,0,0,0,34.269,32.783Z" transform="translate(32.563 -5.737)" fill="#67b9cc"/>
        <path id="Path_89" data-name="Path 89" d="M15.636,43.541a2.078,2.078,0,0,0-2.842-.761L5.587,46.94a2.08,2.08,0,1,0,2.078,3.6l7.207-4.161A2.08,2.08,0,0,0,15.636,43.541Z" transform="translate(0.75 12.631)" fill="#67b9cc"/>
      </g>
      <path id="Path_91" data-name="Path 91" d="M59.126,0C43.065,0,30,11.881,30,27.046v5.216a45.624,45.624,0,0,1,8.322,4.282v-9.5c0-10.55,9.362-18.724,20.8-18.724s20.8,8.174,20.8,18.724V39.528l8.322.06V27.046C88.252,11.881,75.187,0,59.126,0Z" transform="translate(32.509)" fill="#e6e7e8"/>
      <path id="Path_92" data-name="Path 92" d="M57.537,2C43.165,2,31.471,12.633,31.471,26.2v5.278a45.612,45.612,0,0,1,5.261,2.9v-9.5c0-10.55,9.362-18.724,20.8-18.724s20.8,8.174,20.8,18.724V37.367L83.6,37.4V26.2C83.6,12.633,71.908,2,57.537,2Z" transform="translate(34.098 2.161)" fill="#c9cac6"/>
    </g>
    <path id="Path_65" data-name="Path 65" d="M10.159-12.987V-.5a9.119,9.119,0,0,0,3.661-.69,7.281,7.281,0,0,0,2.668-1.946,8.49,8.49,0,0,0,1.632-3A12.714,12.714,0,0,0,18.675-10h3.18a16.767,16.767,0,0,1-.816,5.44A9.891,9.891,0,0,1,18.518-.538a11.159,11.159,0,0,1-4.341,2.49A20.38,20.38,0,0,1,7.9,2.809H6.77V-11.523L1.79-9.43v-2.72l4.98-2.092V-17.3L1.79-15.2v-2.7l4.98-2.113V-27.4h3.389v5.942l7.679-3.264v2.7l-7.679,3.264v3.076l7.679-3.285v2.72Z" transform="translate(5509.911 3045.956)" fill="#c9cac6"/>
  </g>
</svg>
