<svg xmlns="http://www.w3.org/2000/svg" width="143" height="143" viewBox="0 0 143 143">
  <g id="phone_w" transform="translate(-3908 -2953)">
    <rect id="Rectangle_9" data-name="Rectangle 9" width="143" height="143" transform="translate(3908 2953)" fill="none"/>
    <path id="Path_20" data-name="Path 20" d="M94.735,52.982c10.279,0,17.132-2.8,23.237-9.594.436-.5.872-1,1.308-1.433,3.489-3.987,5.171-7.912,5.171-11.65,0-4.3-2.43-8.285-7.663-11.9L99.469,6.384C94.112,2.709,87.82,2.273,82.9,7.256l-4.485,4.423c-1.433,1.433-2.679,1.557-4.174.561C71.062,10.184,64.832,4.7,60.534.4c-4.485-4.423-8.846-9.345-11.151-13.02-.934-1.5-.872-2.741.561-4.174l4.423-4.485c4.921-4.921,4.548-11.213.872-16.571L43.09-55.29c-3.551-5.171-7.6-7.538-11.9-7.6-3.738-.062-7.663,1.682-11.587,5.171-.5.436-1,.81-1.433,1.246-6.79,6.167-9.656,12.958-9.656,23.361,0,17.007,10.279,37.565,29.466,56.69C57.107,42.641,77.541,52.982,94.735,52.982Zm0-9.282c-15.014.249-34.076-11.027-49.713-26.539C29.261,1.525,17.549-18.223,17.86-33.3c.062-6.417,2.367-11.961,6.915-15.948.374-.374.748-.623,1.121-.934a8.456,8.456,0,0,1,5.3-2.3,4.881,4.881,0,0,1,4.361,2.43L46.891-33.112a4.249,4.249,0,0,1-.561,5.918L41.346-22.21c-4.236,4.174-3.925,9.22-1,13.145A142.723,142.723,0,0,0,54.242,6.758,175.183,175.183,0,0,0,70.688,21.273c3.925,2.928,8.971,3.239,13.145-1l4.984-4.984a4.249,4.249,0,0,1,5.918-.561l16.82,11.213a4.979,4.979,0,0,1,2.492,4.423,8.309,8.309,0,0,1-2.3,5.233c-.374.436-.623.748-.934,1.184C106.758,41.333,101.214,43.576,94.735,43.7Z" transform="translate(3913.38 3029.392)" fill="#fff"/>
  </g>
</svg>
