<svg xmlns="http://www.w3.org/2000/svg" width="143" height="143" viewBox="0 0 143 143">
  <g id="safe" transform="translate(-5293 -2860)">
    <rect id="Rectangle_11" data-name="Rectangle 11" width="143" height="143" transform="translate(5293 2860)" fill="none"/>
    <g id="shield-1" transform="translate(5311.514 2870.723)">
      <path id="Path_62" data-name="Path 62" d="M53.486,0S39.4,16.9,7,16.9V57.23C7,78.288,16.145,98.6,32.7,111.608a62.317,62.317,0,0,0,20.783,10.945,62.338,62.338,0,0,0,20.783-10.945c16.557-13.012,25.7-33.32,25.7-54.378V16.9C67.573,16.9,53.486,0,53.486,0Z" transform="translate(0)" fill="#556080"/>
      <path id="Path_63" data-name="Path 63" d="M46.808,100.444a51.341,51.341,0,0,1-12.948-7.518C20.8,82.661,13,66.06,13,48.516V20.081C28.617,18.089,39.706,12.656,46.808,7.83,53.91,12.656,65,18.089,80.616,20.081V48.516c0,17.544-7.8,34.146-20.857,44.411A51.388,51.388,0,0,1,46.808,100.444Z" transform="translate(6.678 8.715)" fill="#4fba6f"/>
      <path id="Path_64" data-name="Path 64" d="M67.991,20.523a2.113,2.113,0,0,0-2.981.2l-28.1,32.107L21.607,37.522a2.113,2.113,0,1,0-2.988,2.988l16.9,16.9a2.111,2.111,0,0,0,1.494.619h.07a2.11,2.11,0,0,0,1.519-.721L68.188,23.5A2.113,2.113,0,0,0,67.991,20.523Z" transform="translate(12.243 22.26)" fill="#fff"/>
    </g>
  </g>
</svg>
