<svg xmlns="http://www.w3.org/2000/svg" width="143" height="143" viewBox="0 0 143 143">
  <g id="whatsapp_g" transform="translate(-4098 -2750)">
    <rect id="Rectangle_7" data-name="Rectangle 7" width="143" height="143" transform="translate(4098 2750)" fill="none"/>
    <g id="Full_copy" transform="translate(4114.156 2763.5)">
      <path id="Path_17" data-name="Path 17" d="M61.163,44.754,50.6,39.881c-.936-.519-1.865-.1-2.8,1.038-1.137,1.554-1.66,2.175-3.005,3.835-.724.932-1.243,1.554-2.069,1.656a6.167,6.167,0,0,1-2.384-.311C37.028,44.963,33.2,42.162,30.3,39.57c-2.8-2.589-5.9-6.216-7.25-9.429a2.206,2.206,0,0,1,0-2.278,42.816,42.816,0,0,1,2.8-3.316c.932-1.141,1.656-2.175,1.346-3.111L22.531,9.314c-.417-.83-1.656-.932-3.108-1.038a18.285,18.285,0,0,0-3.521.208c-2.069.728-6.318,6.322-6.834,10.365C7.928,27.658,15.9,39.369,23.88,46.623c7.978,7.36,20.3,14.3,29,12.333,4.04-.932,9.221-5.594,9.634-7.773a10.29,10.29,0,0,0-.1-3.525c-.106-1.452-.417-2.486-1.25-2.9Z" transform="translate(21.141 21.983)" fill="#46c556"/>
      <path id="Path_18" data-name="Path 18" d="M55.895,0A54.851,54.851,0,0,0,9.285,83.838L1,117l29.623-13.473A54.837,54.837,0,1,0,55.895,0Zm0,98.759A43.072,43.072,0,0,1,30,90.262l-13.36,8.5,6.007-15.236A43.84,43.84,0,1,1,55.895,98.759Z" fill="#46c556"/>
    </g>
  </g>
</svg>
